#N canvas 1064 58 840 1092 12;
#X obj -33 83 padthink;
#X obj 104 156 unpack f f;
#X floatatom 107 182 5 0 0 0 - - - 0;
#X floatatom 171 182 5 0 0 0 - - - 0;
#X obj -59 177 unpack f f;
#X floatatom -59 202 5 0 0 0 - - - 0;
#X floatatom 8 204 5 0 0 0 - - - 0;
#X text 183 156 Trackpad x y;
#X text -50 152 Trackpoint x y;
#X obj 81 259 tgl 20 0 empty empty empty 0 -10 0 12 #fcfcfc #000000 #000000 0 1;
#X obj 108 259 tgl 20 0 empty empty empty 0 -10 0 12 #fcfcfc #000000 #000000 0 1;
#X obj 131 259 tgl 20 0 empty empty empty 0 -10 0 12 #fcfcfc #000000 #000000 0 1;
#X text -59 3 PADTHINK, f 59;
#X msg 22 33 start;
#X msg -19 32 stop;
#X text 35 275 TrackPad Buttons;
#X msg 73 33 poll 1;
#X obj 81 235 unpack f f f f;
#X obj 176 262 tgl 20 0 empty empty empty 0 -10 0 12 #fcfcfc #000000 #000000 0 1;
#X text 198 264 TrackPad Press;
#X obj -56 32 tgl 20 0 empty empty empty 0 -10 0 12 #fcfcfc #000000 #000000 0 1;
#X text -56 558 Trackpoint;
#X text -49 655 Touchpad;
#X text 123 32 poll every 1ms;
#X obj 336 201 bng 20 250 50 0 empty empty empty 0 -10 0 12 #fcfcfc #000000 #000000;
#X obj 359 201 bng 20 250 50 0 empty empty empty 0 -10 0 12 #fcfcfc #000000 #000000;
#X obj 381 201 bng 20 250 50 0 empty empty empty 0 -10 0 12 #fcfcfc #000000 #000000;
#X obj 403 201 bng 20 250 50 0 empty empty empty 0 -10 0 12 #fcfcfc #000000 #000000;
#X text 336 227 Fingers Down;
#X obj 324 145 sel 1 2 3 4;
#X msg 234 47 trackpoint /dev/input/event7;
#X msg 236 15 touchpad /dev/input/event9;
#X text -51 605 find /dev/input/ -maxdepth 1 -name 'event*' | sudo xargs udevadm info | grep -20 -i serio-1;
#X text -52 706 find /dev/input/ -maxdepth 1 -name 'event*' | sudo xargs udevadm info | grep -20 -i touhpad;
#X msg -52 577 trackpoint /dev/path, f 79;
#X msg -48 677 touchpad /dev/path, f 84;
#X text -54 504 Find the path for you hardware with the find command And then you can set padthink with a msg;
#X connect 0 0 4 0;
#X connect 0 1 17 0;
#X connect 0 2 1 0;
#X connect 0 3 29 0;
#X connect 1 0 2 0;
#X connect 1 1 3 0;
#X connect 4 0 5 0;
#X connect 4 1 6 0;
#X connect 13 0 0 0;
#X connect 14 0 0 0;
#X connect 16 0 0 0;
#X connect 17 0 9 0;
#X connect 17 1 10 0;
#X connect 17 2 11 0;
#X connect 17 3 18 0;
#X connect 20 0 0 0;
#X connect 29 0 24 0;
#X connect 29 1 25 0;
#X connect 29 2 26 0;
#X connect 29 3 27 0;
#X connect 30 0 0 0;
#X connect 31 0 0 0;
